<?xml version="1.0" standalone="no"?><!DOCTYPE svg PUBLIC "-//W3C//DTD SVG 1.1//EN" "http://www.w3.org/Graphics/SVG/1.1/DTD/svg11.dtd"><svg t="1769666233309" class="icon" viewBox="0 0 1024 1024" version="1.1" xmlns="http://www.w3.org/2000/svg" p-id="64196" xmlns:xlink="http://www.w3.org/1999/xlink" width="200" height="200"><path d="M471.543921 1002.271438a75.651799 75.651799 0 0 1 0-99.314317l382.240669-397.484791L471.543921 107.987539a75.765561 75.765561 0 0 1 12.513831-86.345436 68.257262 68.257262 0 0 1 83.046336-12.96888l435.82262 443.672205a79.633473 79.633473 0 0 1 21.045989 52.671854 74.969226 74.969226 0 0 1-21.045989 51.647995L571.882096 1001.81639a68.826073 68.826073 0 0 1-100.338175 0z" fill="#25292D" p-id="64197"></path><path d="M18.656985 1002.271438a75.651799 75.651799 0 0 1 0-99.314317l382.240669-397.484791L18.656985 107.987539a75.765561 75.765561 0 0 1 12.513831-86.345436 68.257262 68.257262 0 0 1 83.046336-12.96888l435.82262 443.672205a79.633473 79.633473 0 0 1 21.04599 52.671854 74.969226 74.969226 0 0 1-21.04599 51.647995L118.995161 1001.81639a68.826073 68.826073 0 0 1-100.338176 0z" fill="#25292D" p-id="64198"></path></svg>